<?xml version="1.0" encoding="UTF-8"?>
<svg id="Layer_2" data-name="Layer 2" xmlns="http://www.w3.org/2000/svg" viewBox="0 0 965.38 452.1">
  <defs>
    <style>
      .cls-1 {
        fill: #3e7fbb;
      }

      .cls-2 {
        fill: #1f3e77;
      }
    </style>
  </defs>
  <g id="Layer_1-2" data-name="Layer 1">
    <path class="cls-2" d="M44.62,273.84c-4.09-3.45-10.56-5.18-19.24-5.18-3.9-.08-7.72.4-11.49,1.43-2.88.8-5.52,2.1-7.92,3.91-1.99,1.53-3.51,3.45-4.54,5.76C.46,282.01-.01,284.37,0,286.82v3.61h12.7c-.05-2.81.83-5.29,2.64-7.44,1.75-2.04,5.12-3.08,10.09-3.08,2.11-.05,4.18.21,6.2.82,1.46.45,2.77,1.18,3.94,2.18.93.81,1.63,1.79,2.11,2.93.37.99.56,2.02.58,3.08v2.87c.01,1.1-.21,2.14-.66,3.13-.43.87-.96,1.68-1.58,2.42-.52.64-1.14,1.16-1.85,1.57l-1.58.83c-.4,0-1.4.45-2.98,1.06-1.58.61-3.46,1.27-5.6,2.02l-6.63,2.31c-2.3.83-4.33,1.51-6.12,2.12-3.53,1.22-6.29,3.41-8.29,6.59-1.97,3.16-2.94,6.62-2.9,10.35v7.06c.03,2.03.36,4,.97,5.93.73,2.32,2,4.3,3.8,5.92,2.28,2.04,4.87,3.55,7.77,4.52,8.55,2.45,17.1,2.45,25.66,0,2.9-.97,5.48-2.48,7.76-4.52,1.79-1.63,3.05-3.61,3.8-5.92.61-1.93.93-3.9.98-5.93v-44.44c.03-2.52-.48-4.93-1.56-7.21-1.07-2.28-2.6-4.21-4.57-5.77M38.2,326.94c.22,3.13-.66,5.91-2.64,8.34-1.79,1.94-5.28,2.92-10.14,2.92s-8.22-.93-10.01-2.79c-2.03-2.46-2.91-5.28-2.64-8.47-.07-1.68.31-3.25,1.11-4.73.66-1.15,1.48-2.18,2.46-3.08,1.04-.87,2.19-1.56,3.43-2.1,1.58-.61,3.3-1.2,5.07-1.81,1.77-.61,3.12-1.06,4.86-1.73,1.75-.67,3.36-1.22,4.86-1.73.79-.24,1.52-.59,2.22-1.03.83-.52,1.34-1.28,1.51-2.26l-.08,18.45Z"/>
    <rect class="cls-2" x="69.25" y="239.38" width="12.54" height="108.77"/>
    <path class="cls-2" d="M121.75,268.8c-4.82-.21-9.49.52-14.02,2.18-2.96,1.16-5.49,2.93-7.6,5.31-1.59,1.73-2.64,3.76-3.14,6.08-.34,1.56-.54,3.13-.6,4.72v61.09h12.7v-58.67c0-.99.13-1.96.38-2.92.28-1.16.86-2.16,1.71-3,1.1-1.1,2.36-1.93,3.8-2.5,2.1-.77,4.27-1.12,6.5-1.03h5.81l2.82-10.97c-1.3-.19-2.61-.25-3.94-.21h-4.41"/>
    <path class="cls-2" d="M183.66,273.84c-4.06-3.54-10.48-5.27-19.24-5.18-3.9-.08-7.72.4-11.49,1.43-2.89.79-5.53,2.1-7.92,3.91-2.01,1.52-3.53,3.44-4.57,5.76-.97,2.26-1.44,4.61-1.42,7.07v3.61h12.7c-.06-2.81.82-5.29,2.64-7.44,1.75-2.04,5.1-3.08,10.06-3.08,2.11-.06,4.18.21,6.2.82,1.46.45,2.77,1.18,3.94,2.18.94.81,1.64,1.78,2.11,2.93.38.99.58,2.02.58,3.08v2.87c.03,1.1-.2,2.14-.66,3.13-.43.87-.96,1.68-1.59,2.42-.52.64-1.14,1.16-1.85,1.57l-1.59.83c-.4,0-1.37.45-2.98,1.06s-3.46,1.27-5.6,2.02l-6.63,2.31c-2.3.83-4.33,1.51-6.13,2.12-3.52,1.22-6.27,3.41-8.26,6.59-1.99,3.16-2.97,6.61-2.93,10.35v7.06c.04,2.02.37,4,.97,5.93.75,2.31,2.02,4.28,3.8,5.92,2.28,2.04,4.87,3.55,7.76,4.52,8.55,2.45,17.1,2.45,25.66,0,2.9-.97,5.49-2.47,7.76-4.52,1.81-1.62,3.08-3.59,3.8-5.92.62-1.93.95-3.9.98-5.93v-44.44c.03-2.52-.48-4.93-1.56-7.21-1.08-2.28-2.6-4.21-4.57-5.77M177.24,326.94c.22,3.13-.67,5.91-2.64,8.34-1.77,1.94-5.15,2.92-10.14,2.92s-8.22-.93-10.01-2.79c-2.02-2.46-2.9-5.29-2.64-8.47-.07-1.68.3-3.25,1.11-4.73.66-1.15,1.48-2.18,2.46-3.08,1.04-.87,2.19-1.56,3.43-2.1,1.61-.61,3.3-1.2,5.09-1.81,1.79-.61,3.09-1.06,4.83-1.73,1.75-.67,3.36-1.22,4.86-1.73.79-.25,1.54-.59,2.24-1.03.83-.53,1.32-1.28,1.48-2.26l-.08,18.45Z"/>
    <path class="cls-2" d="M251.56,275.99c-2.12-2.36-4.66-4.12-7.6-5.31-9.35-2.97-18.71-2.97-28.06,0-2.95,1.18-5.48,2.95-7.6,5.31-1.57,1.73-2.61,3.73-3.14,6-.35,1.58-.55,3.19-.61,4.81v44.42c-.11,3.29.78,6.29,2.65,9,.89,1.2,1.88,2.29,2.98,3.29,1.36,1.22,2.89,2.2,4.57,2.94,2.09.93,4.25,1.63,6.5,2.1,2.9.58,5.83.85,8.79.82,3.85.1,7.64-.36,11.35-1.35,2.5-.69,4.83-1.74,7-3.16,2.28-1.54,4.04-3.55,5.28-6.01,1.16-2.36,1.73-4.85,1.71-7.49v-3.61h-12.67c0,1.55-.25,3.06-.77,4.51-.52,1.46-1.4,2.66-2.64,3.58-1,.58-2.05,1.06-3.14,1.44-1.99.63-4.04.9-6.12.82-1.63.03-3.24-.12-4.83-.45-1.06-.23-2.08-.58-3.06-1.06-.83-.3-1.58-.75-2.24-1.32-.52-.54-.97-1.15-1.34-1.81-.99-1.77-1.44-3.68-1.35-5.71v-6.74c-.05-2.8.94-5.16,2.98-7.07,1.89-1.9,4.18-2.86,6.86-2.83h11.35c1.37,0,2.71-.21,4.02-.61,1.28-.36,2.51-.81,3.72-1.36,1.44-.6,2.69-1.49,3.75-2.65,2.05-1.88,3.57-4.12,4.54-6.74.62-1.85.94-3.75.97-5.71v-7.19c-.06-1.6-.27-3.17-.6-4.73-.5-2.3-1.54-4.33-3.12-6.08M242.61,290.54v1.36c0,2.38-.88,4.36-2.64,5.94-1.65,1.67-3.63,2.49-5.97,2.47h-8.5c-.5,0-1.19,0-2.08.13-.9.12-1.78.33-2.64.62-.87.28-1.66.7-2.38,1.27-.71.57-1.16,1.29-1.35,2.18v-15.61c.04-.9.19-1.79.45-2.65.36-1.15.99-2.14,1.87-2.95,1.18-1.05,2.52-1.81,4.02-2.31,2.2-.73,4.47-1.06,6.78-.98,2.22-.08,4.39.24,6.49.98,1.44.5,2.71,1.3,3.8,2.39.84.85,1.42,1.85,1.74,3,.23.96.35,1.93.37,2.92l.03,1.25Z"/>
    <path class="cls-2" d="M305.26,258.6v2.85c.03,1.1-.2,2.16-.66,3.16-.43.86-.96,1.66-1.59,2.39-.52.63-1.14,1.15-1.85,1.57l-1.56.82c-.42,0-1.4.45-2.98,1.06l-5.55,2.02-6.54,2.34-6.13,2.1c-3.59,1.2-6.4,3.39-8.42,6.61-1.99,3.16-2.97,6.61-2.93,10.36v3.45h.16v30.45h-.16v3.61c-.01,2.44.46,4.79,1.42,7.03,1.02,2.33,2.53,4.25,4.54,5.79,2.4,1.79,5.04,3.1,7.92,3.9,3.79,1.02,7.64,1.49,11.57,1.4,8.66,0,15.02-1.72,19.08-5.17,4.15-3.31,6.25-7.63,6.29-12.96v-92.05h-12.7l.08,19.27ZM305.26,296.54v32.58c0,1.07-.2,2.12-.58,3.13-.44,1.18-1.12,2.18-2.04,3.03-1.14,1.02-2.42,1.73-3.88,2.15-2.02.62-4.07.9-6.18.85-2.06.05-4.07-.24-6.04-.85-1.45-.44-2.73-1.16-3.88-2.15-.94-.89-1.64-1.94-2.09-3.16-.46-1.21-.74-2.47-.82-3.77v-31.86c-.05-1.68.32-3.25,1.11-4.73.68-1.14,1.5-2.16,2.46-3.08,1.02-.93,2.16-1.68,3.43-2.23,1.61-.61,3.3-1.2,5.09-1.81l4.84-1.64c1.74-.61,3.35-1.17,4.86-1.65.83-.22,1.59-.58,2.3-1.06.83-.58,1.31-1.38,1.42-2.39v18.64Z"/>
    <path class="cls-2" d="M377.17,273.84c-4.06-3.54-10.48-5.27-19.24-5.18-3.9-.07-7.72.4-11.49,1.43-2.89.79-5.53,2.1-7.92,3.91-2.01,1.52-3.53,3.44-4.57,5.76-.95,2.26-1.42,4.61-1.4,7.07v3.61h12.64c-.06-2.81.82-5.29,2.65-7.44,1.74-2.04,5.09-3.08,10.06-3.08,2.11-.06,4.18.21,6.21.82,1.46.46,2.78,1.18,3.96,2.18.92.82,1.61,1.79,2.09,2.93.38.99.57,2.02.58,3.08v2.87c.03,1.1-.19,2.14-.66,3.13-.43.87-.95,1.67-1.56,2.42-.54.63-1.16,1.16-1.87,1.57l-1.56.83c-.42,0-1.4.45-2.98,1.06l-5.6,2.02-6.66,2.31c-2.3.83-4.33,1.51-6.13,2.12-3.52,1.22-6.27,3.41-8.26,6.59-1.98,3.16-2.95,6.61-2.9,10.35v7.06c.03,2.02.35,4,.95,5.93.75,2.31,2.02,4.28,3.8,5.92,2.28,2.04,4.87,3.55,7.77,4.52,8.55,2.45,17.11,2.45,25.66,0,2.9-.96,5.49-2.46,7.77-4.52,1.81-1.62,3.07-3.59,3.8-5.92.62-1.93.94-3.9.97-5.93v-44.44c.04-2.52-.48-4.93-1.56-7.21-1.07-2.28-2.6-4.21-4.57-5.77M370.75,326.94c.2,3.12-.68,5.9-2.64,8.34-1.79,1.94-5.28,2.92-10.16,2.92s-8.21-.93-9.98-2.79c-2.03-2.46-2.91-5.28-2.64-8.47-.07-1.68.31-3.25,1.11-4.73.67-1.15,1.5-2.18,2.49-3.08,1.03-.87,2.16-1.57,3.4-2.1,1.61-.61,3.3-1.2,5.09-1.81,1.79-.61,3.09-1.06,4.83-1.73l4.86-1.73c.79-.25,1.54-.59,2.24-1.03.83-.53,1.32-1.28,1.48-2.26l-.08,18.45Z"/>
    <path class="cls-2" d="M445.73,283.34c-1.98-3.18-4.74-5.39-8.26-6.61l-6.21-2.1-6.65-2.31-5.52-2.05c-1.59-.58-2.64-.93-2.98-1.04l-1.56-.82c-.72-.42-1.34-.95-1.87-1.59-.61-.74-1.13-1.53-1.56-2.39-.46-1-.68-2.06-.66-3.16v-21.95h-12.46v108.85h12.54v-70.39c.12,1.03.61,1.83,1.48,2.39.7.46,1.44.81,2.24,1.06,1.59.5,3.22,1.03,4.91,1.64,1.69.61,3.3,1.14,4.78,1.65,1.48.5,3.48,1.2,5.07,1.81,1.34.53,2.53,1.28,3.59,2.26.97.89,1.76,1.91,2.37,3.08.77,1.48,1.13,3.06,1.06,4.73v51.77h12.67v-54.48c.05-3.74-.92-7.19-2.9-10.36"/>
    <rect class="cls-2" x="436.07" y="102.59" width="12.54" height="108.78"/>
    <rect class="cls-2" x="247.31" y="102.59" width="12.54" height="108.78"/>
    <path class="cls-2" d="M398,190.82c-.01.99-.14,1.96-.37,2.92-.32,1.14-.89,2.14-1.71,3-1.09,1.09-2.36,1.88-3.8,2.39-2.11.73-4.27,1.06-6.5.99h-71.39c-2.22.08-4.39-.25-6.49-.99-1.45-.51-2.71-1.3-3.8-2.39-.85-.84-1.42-1.83-1.71-3-.25-.96-.37-1.93-.37-2.92v-58.97h-12.7v89.71c-.01,1-.15,1.99-.42,2.95-.37,1.14-.99,2.12-1.87,2.92-1.17,1.03-2.49,1.8-3.96,2.31-2.23.75-4.51,1.07-6.86.98l.29,11.26c4.83.21,9.51-.52,14.04-2.18,2.95-1.18,5.48-2.95,7.6-5.31,1.54-1.66,2.59-3.59,3.14-5.79.33-1.59.52-3.18.58-4.8v-14.29c3.96,1.24,8.01,1.81,12.15,1.73h71.52c4.82.21,9.51-.52,14.04-2.18,2.96-1.17,5.49-2.93,7.6-5.31,1.57-1.76,2.61-3.78,3.14-6.08.34-1.56.53-3.14.58-4.73v-90.46h-12.72v88.23Z"/>
    <path class="cls-2" d="M204.17,190.82c0,.99-.13,1.96-.37,2.92-.29,1.16-.87,2.16-1.72,3-1.09,1.09-2.35,1.88-3.79,2.39-2.1.74-4.25,1.06-6.47.99h-74.29c.15-.32.28-.65.37-.99.62-1.92.95-3.9.98-5.92v-44.42c.01-2.45-.46-4.79-1.42-7.04-1.02-2.33-2.54-4.26-4.57-5.79-2.39-1.8-5.04-3.1-7.92-3.9-3.77-1.03-7.6-1.5-11.51-1.41-8.85,0-15.29,1.7-19.3,5.31-1.94,1.58-3.45,3.51-4.51,5.78-1.06,2.28-1.57,4.67-1.54,7.19v3.61h12.51v-1.62c.01-1.07.22-2.09.61-3.08.45-1.16,1.15-2.14,2.08-2.94,1.17-1.01,2.48-1.73,3.96-2.16,2.02-.62,4.07-.9,6.18-.85,4.98,0,8.34,1.03,10.08,3.08,1.82,2.14,2.7,4.61,2.64,7.43v36.48c.28,3.2-.6,6.03-2.64,8.5-1.79,1.83-5.12,2.65-10.01,2.65l-28.16-.21v11.55h126.03c4.82.2,9.5-.52,14.05-2.18,2.94-1.17,5.48-2.94,7.6-5.31,1.57-1.75,2.61-3.77,3.11-6.08.34-1.56.54-3.14.61-4.73v-61.33h-12.7l.11,59.08Z"/>
    <path class="cls-2" d="M209.77,118.39c-.33-.48-.46-1.01-.4-1.59v-5.31c-.02-.5.13-.94.45-1.32,0,0,.37-.4,2.01-.4.5-.03.99.03,1.48.18.26.06.5.18.71.35.09.09.17.2.24.32.03.13.03.26,0,.4v2.15h7.39v-2.71c0-2.25-.88-4.08-2.64-5.47-2.19-1.62-4.63-2.32-7.34-2.1-1.42-.03-2.82.16-4.2.53-1.14.32-2.19.85-3.14,1.57-.87.73-1.52,1.61-1.95,2.65-.41.94-.61,1.92-.61,2.95v7.75c-.01.2-.01.39,0,.58h-3.93v6.99h24.44v-7.25l-10.77.13c-.73.08-1.42-.05-2.06-.4"/>
    <path class="cls-2" d="M47.07,138.43c-2.14-2.36-4.68-4.13-7.63-5.31-9.34-2.98-18.69-2.98-28.04,0-2.94,1.17-5.47,2.95-7.6,5.31-1.58,1.75-2.63,3.78-3.14,6.08-.34,1.55-.54,3.13-.61,4.72v44.58c.07,1.59.27,3.17.61,4.73.52,2.3,1.57,4.33,3.14,6.08,2.14,2.31,4.67,4.04,7.6,5.17,9.35,2.98,18.69,2.98,28.04,0,2.94-1.14,5.48-2.86,7.63-5.17,1.55-1.73,2.59-3.73,3.12-6.01.35-1.58.55-3.18.6-4.8v-44.42c-.05-1.62-.26-3.23-.6-4.8-.52-2.28-1.55-4.28-3.12-6.01M38.09,191.54c0,.99-.15,1.97-.42,2.92-.36,1.16-.98,2.14-1.87,2.94-1.18,1.03-2.49,1.8-3.96,2.31-2.23.75-4.52,1.07-6.86.99-2.23.08-4.39-.25-6.5-.99-1.44-.51-2.71-1.3-3.8-2.39-.85-.87-1.42-1.9-1.72-3.08-.22-.89-.35-1.79-.4-2.71v-39.82c.03-.96.15-1.91.37-2.84.3-1.18.87-2.21,1.72-3.08,1.09-1.08,2.36-1.88,3.8-2.39,2.1-.74,4.27-1.07,6.5-.98,2.34-.09,4.63.24,6.86.98,1.47.5,2.79,1.27,3.96,2.3.89.81,1.51,1.78,1.87,2.93.27.96.42,1.94.42,2.94l.03,39.96Z"/>
    <rect class="cls-2" x="29.01" y="109.49" width="12.67" height="15.16"/>
    <rect class="cls-2" x="9" y="109.49" width="12.7" height="15.16"/>
    <path class="cls-2" d="M772.92,225.15c-.01.22-.01.44,0,.67v.21-.87ZM836.91,226.08v-.87.87ZM836.91,227.01v-.85.85ZM708.83,226.02c.01-.15.01-.29,0-.45v-.42.87ZM644.78,225.15v.83-.83ZM837.05,228.02v-3.88l.23-2.42c.52-3.86,1.71-7.49,3.54-10.92,1.83-3.42,4.21-6.41,7.11-8.97,2.92-2.57,6.18-4.53,9.8-5.9,3.62-1.37,7.36-2.06,11.23-2.06h.5c2.1-.03,4.17-.28,6.22-.71,2.05-.44,4.04-1.08,5.96-1.92,1.93-.84,3.75-1.85,5.47-3.05,1.73-1.19,3.32-2.55,4.78-4.05,1.46-1.51,2.77-3.15,3.91-4.92,1.14-1.77,2.1-3.63,2.88-5.59.78-1.96,1.36-3.97,1.75-6.04.39-2.07.57-4.16.55-6.27-.02-2.11-.25-4.19-.68-6.26-.43-2.06-1.06-4.06-1.87-6-.82-1.94-1.81-3.78-3-5.53-1.18-1.74-2.51-3.35-4.01-4.83-1.49-1.48-3.11-2.79-4.86-3.96-1.75-1.16-3.59-2.13-5.54-2.93-1.94-.79-3.94-1.39-6-1.79-2.06-.4-4.14-.6-6.23-.59-2.1.01-4.17.23-6.22.65-2.05.42-4.05,1.03-5.98,1.85-1.93.81-3.77,1.81-5.51,2.98-1.74,1.17-3.35,2.51-4.82,4-1.48,1.49-2.8,3.12-3.96,4.88-1.16,1.75-2.14,3.6-2.94,5.55-.8,1.95-1.4,3.96-1.81,6.03-.4,2.07-.61,4.16-.61,6.26-.05,2.08-.32,4.13-.77,6.16-.46,2.02-1.09,3.99-1.93,5.89s-1.84,3.7-3.02,5.41c-1.18,1.71-2.51,3.28-3.99,4.73-1.49,1.45-3.09,2.74-4.82,3.88-1.73,1.14-3.55,2.1-5.47,2.88-1.91.78-3.88,1.37-5.91,1.77-2.03.4-4.08.6-6.14.6s-4.11-.2-6.14-.6c-2.03-.4-4-.99-5.91-1.77-1.92-.78-3.73-1.74-5.47-2.88-1.73-1.14-3.34-2.42-4.82-3.88-1.48-1.45-2.81-3.02-3.99-4.73-1.18-1.71-2.18-3.51-3.02-5.41s-1.47-3.87-1.93-5.89c-.45-2.03-.71-4.08-.77-6.16-.05-2.08-.31-4.12-.77-6.15-.46-2.03-1.1-4-1.93-5.9-.83-1.9-1.83-3.7-3.02-5.41-1.17-1.71-2.51-3.28-3.99-4.73-1.48-1.45-3.08-2.73-4.82-3.88-1.73-1.14-3.55-2.09-5.47-2.88-1.92-.78-3.88-1.37-5.91-1.77-2.03-.4-4.07-.6-6.14-.6s-4.11.2-6.14.6c-2.03.4-4,.99-5.91,1.77-1.91.79-3.73,1.74-5.47,2.88-1.73,1.14-3.33,2.43-4.82,3.88-1.48,1.45-2.81,3.03-3.99,4.73-1.18,1.71-2.18,3.51-3.02,5.41-.83,1.9-1.47,3.87-1.93,5.9-.45,2.03-.71,4.08-.77,6.15,0,2.12-.21,4.21-.62,6.28-.42,2.07-1.02,4.08-1.83,6.04-.81,1.95-1.79,3.81-2.96,5.56-1.17,1.76-2.49,3.39-3.98,4.88-1.48,1.5-3.1,2.83-4.85,4-1.75,1.17-3.59,2.17-5.54,2.98-1.94.81-3.94,1.42-6.01,1.83-2.06.41-4.14.61-6.25.61s-4.18-.2-6.24-.61c-2.06-.42-4.06-1.03-6.01-1.83-1.94-.81-3.79-1.8-5.54-2.98-1.75-1.17-3.36-2.51-4.85-4-1.49-1.49-2.81-3.12-3.98-4.88-1.17-1.75-2.16-3.61-2.96-5.56-.81-1.96-1.42-3.96-1.83-6.04-.41-2.07-.62-4.17-.62-6.28s-.2-4.2-.6-6.27c-.4-2.07-1.01-4.08-1.8-6.03-.8-1.95-1.78-3.81-2.94-5.56-1.15-1.76-2.48-3.39-3.96-4.89-1.48-1.49-3.08-2.84-4.82-4.01-1.74-1.18-3.58-2.18-5.51-3-1.93-.81-3.93-1.44-5.98-1.85-2.06-.43-4.13-.64-6.23-.66-2.09-.01-4.18.18-6.24.58-2.06.4-4.06.99-6.01,1.79-1.94.8-3.8,1.77-5.55,2.93-1.75,1.16-3.38,2.49-4.87,3.96-1.5,1.48-2.84,3.09-4.02,4.84-1.18,1.75-2.18,3.59-3,5.53-.82,1.94-1.45,3.95-1.87,6.01-.43,2.07-.66,4.16-.68,6.27-.03,2.11.16,4.2.54,6.28.39,2.07.98,4.08,1.75,6.04.78,1.96,1.74,3.82,2.89,5.59,1.14,1.77,2.45,3.41,3.92,4.92,1.46,1.51,3.06,2.86,4.79,4.06,1.73,1.2,3.56,2.21,5.48,3.04,1.93.84,3.92,1.48,5.97,1.91,2.05.44,4.13.68,6.23.71h.5c3.87,0,7.61.68,11.23,2.05,3.62,1.37,6.89,3.34,9.8,5.9,2.91,2.56,5.29,5.55,7.12,8.97,1.83,3.43,3,7.07,3.53,10.92l.23,2.39v2.84-.88,1.94l-.21,2.42c-.52,3.85-1.71,7.49-3.54,10.92-1.83,3.42-4.21,6.41-7.12,8.97-2.91,2.56-6.17,4.53-9.79,5.9-3.62,1.37-7.36,2.06-11.22,2.07h-.5c-2.1.03-4.17.28-6.22.72-2.05.44-4.03,1.08-5.96,1.92-1.92.83-3.74,1.85-5.47,3.05-1.73,1.19-3.32,2.54-4.78,4.06-1.46,1.51-2.76,3.15-3.9,4.92-1.14,1.77-2.1,3.63-2.88,5.59-.77,1.96-1.36,3.97-1.74,6.05-.38,2.07-.56,4.16-.54,6.27.02,2.11.25,4.19.68,6.25.43,2.06,1.05,4.06,1.87,6,.83,1.95,1.83,3.78,3,5.53,1.18,1.74,2.52,3.35,4.02,4.82,1.49,1.48,3.12,2.79,4.86,3.96,1.75,1.16,3.6,2.13,5.54,2.92,1.94.79,3.94,1.38,6,1.79,2.06.4,4.14.58,6.23.58,2.09-.01,4.17-.24,6.22-.65,2.05-.42,4.05-1.05,5.98-1.86,1.93-.81,3.77-1.81,5.51-2.99,1.74-1.17,3.34-2.51,4.82-4.01,1.48-1.49,2.79-3.12,3.95-4.88,1.16-1.75,2.14-3.61,2.94-5.56.8-1.95,1.4-3.96,1.81-6.02.4-2.07.6-4.15.6-6.26s.2-4.21.61-6.29c.42-2.07,1.02-4.08,1.83-6.04.81-1.95,1.79-3.81,2.96-5.57,1.17-1.76,2.5-3.39,3.98-4.88,1.49-1.5,3.1-2.83,4.86-4.01,1.75-1.18,3.59-2.16,5.54-2.98,1.94-.81,3.94-1.42,6.01-1.83,2.06-.41,4.14-.62,6.25-.62s4.19.21,6.25.62c2.06.42,4.07,1.03,6.01,1.83,1.94.81,3.79,1.8,5.53,2.98,1.75,1.17,3.37,2.51,4.85,4.01,1.49,1.49,2.81,3.12,3.98,4.88,1.17,1.76,2.16,3.61,2.96,5.57.81,1.95,1.41,3.97,1.82,6.04.41,2.08.62,4.17.62,6.29,0,2.11.2,4.2.6,6.27.41,2.07,1.01,4.08,1.81,6.03.8,1.95,1.78,3.8,2.94,5.56,1.16,1.75,2.48,3.39,3.96,4.88,1.48,1.5,3.08,2.83,4.82,4.02,1.74,1.18,3.58,2.18,5.52,2.99,1.93.82,3.93,1.44,5.98,1.86,2.05.42,4.14.64,6.23.65,2.1,0,4.18-.18,6.23-.58,2.06-.4,4.06-.99,6.01-1.79,1.95-.79,3.8-1.77,5.55-2.93,1.75-1.15,3.38-2.48,4.87-3.96,1.5-1.48,2.83-3.09,4.02-4.84,1.18-1.74,2.18-3.59,3-5.53.82-1.94,1.44-3.94,1.87-6,.43-2.07.66-4.16.68-6.27.02-2.11-.16-4.2-.54-6.27-.39-2.07-.97-4.09-1.75-6.04-.78-1.96-1.75-3.82-2.89-5.6-1.14-1.77-2.44-3.41-3.91-4.92-1.46-1.51-3.06-2.87-4.79-4.06-1.73-1.2-3.55-2.21-5.48-3.04-1.93-.84-3.92-1.48-5.96-1.92-2.05-.44-4.12-.68-6.22-.71h-.5c-3.87,0-7.61-.69-11.23-2.05-3.62-1.37-6.89-3.34-9.8-5.9-2.92-2.56-5.29-5.55-7.12-8.98-1.83-3.42-3.01-7.06-3.53-10.91l-.24-2.42v-1.94.93-2.87l.24-2.39c.54-3.83,1.73-7.45,3.57-10.86,1.84-3.41,4.22-6.38,7.13-8.92,2.91-2.54,6.17-4.49,9.78-5.84,3.61-1.36,7.34-2.03,11.2-2.03s7.58.68,11.2,2.03c3.61,1.36,6.87,3.3,9.78,5.84,2.91,2.54,5.29,5.52,7.13,8.92,1.84,3.41,3.04,7.03,3.57,10.86l.22,2.39v5.2c0,.5.15,1.01.23,1.49.08.48,0,1.14.23,1.67.24.53.32,1.2.45,1.78.13.58.21.87.34,1.3.13.42.45,1.27.69,1.88.24.61.24.72.37,1.06.13.35.63,1.33.95,2.02,0,.23.24.5.37.74.4.72.82,1.41,1.24,2.1,0,.18.21.37.34.53.5.75,1.03,1.48,1.58,2.18l.21.29c.61.74,1.27,1.46,1.93,2.15,2.94,3.01,6.33,5.35,10.19,7.01,3.85,1.67,7.87,2.53,12.06,2.6h.58c2.1,0,4.18.21,6.25.62,2.07.41,4.07,1.02,6.01,1.83,1.95.81,3.8,1.8,5.54,2.98,1.75,1.18,3.37,2.51,4.86,4,1.49,1.5,2.82,3.12,3.99,4.88,1.17,1.76,2.16,3.61,2.96,5.57.81,1.95,1.41,3.97,1.82,6.04.42,2.08.62,4.17.62,6.29s.2,4.2.6,6.27c.4,2.07,1.01,4.08,1.81,6.03.79,1.95,1.77,3.81,2.94,5.56,1.16,1.76,2.48,3.39,3.96,4.89,1.48,1.5,3.09,2.83,4.83,4.02,1.74,1.18,3.57,2.18,5.51,3,1.94.81,3.93,1.44,5.98,1.85,2.06.43,4.14.64,6.23.66,2.09.01,4.18-.18,6.24-.58,2.06-.4,4.06-.99,6.01-1.79,1.95-.79,3.8-1.77,5.55-2.93,1.75-1.16,3.38-2.48,4.88-3.96,1.49-1.48,2.83-3.09,4.01-4.84,1.18-1.75,2.18-3.59,3-5.53.83-1.94,1.45-3.95,1.88-6.01.43-2.07.65-4.16.67-6.27.03-2.11-.15-4.2-.54-6.27-.39-2.08-.97-4.09-1.75-6.05-.78-1.95-1.74-3.82-2.89-5.59-1.14-1.77-2.45-3.41-3.91-4.92-1.47-1.51-3.06-2.86-4.8-4.06-1.73-1.2-3.55-2.21-5.48-3.04-1.93-.84-3.92-1.48-5.97-1.91-2.05-.44-4.12-.68-6.23-.71h-.5c-3.87,0-7.62-.69-11.23-2.06-3.62-1.37-6.89-3.33-9.8-5.9-2.91-2.56-5.28-5.55-7.11-8.97-1.84-3.42-3.02-7.06-3.54-10.92l.08-2.26Z"/>
    <path class="cls-1" d="M699.64,119.85c1.49-1.5,2.82-3.14,4-4.9,1.17-1.77,2.16-3.63,2.96-5.59.81-1.96,1.42-3.98,1.83-6.07.41-2.08.61-4.18.61-6.31s-.21-4.22-.62-6.31c-.42-2.08-1.03-4.1-1.83-6.07-.81-1.96-1.8-3.82-2.97-5.59-1.17-1.76-2.51-3.39-4-4.9-1.49-1.5-3.12-2.84-4.87-4.02-1.76-1.18-3.61-2.18-5.56-2.99-1.95-.81-3.96-1.42-6.03-1.84-2.08-.41-4.16-.62-6.27-.62s-4.2.21-6.27.62c-2.08.42-4.08,1.03-6.03,1.84s-3.8,1.81-5.56,2.99c-1.75,1.17-3.38,2.52-4.87,4.02-1.49,1.5-2.83,3.14-4,4.9-1.18,1.77-2.16,3.63-2.98,5.59-.81,1.96-1.42,3.98-1.83,6.07-.42,2.08-.62,4.18-.62,6.31s.2,4.23.61,6.31c.42,2.08,1.02,4.1,1.83,6.07.81,1.96,1.79,3.82,2.97,5.59,1.17,1.77,2.5,3.4,3.99,4.9,1.5,1.5,3.12,2.84,4.88,4.02,1.75,1.18,3.61,2.18,5.56,2.99,1.95.81,3.96,1.42,6.03,1.84,2.07.42,4.16.62,6.27.62s4.21-.2,6.27-.62c2.07-.42,4.08-1.03,6.03-1.84,1.95-.81,3.81-1.81,5.56-2.99,1.76-1.18,3.39-2.52,4.88-4.02"/>
    <path class="cls-2" d="M763.6,55.19c1.49-1.5,2.83-3.14,4-4.9,1.18-1.77,2.16-3.63,2.97-5.6.81-1.96,1.42-3.98,1.83-6.07.42-2.08.62-4.18.62-6.31s-.2-4.22-.62-6.31c-.41-2.08-1.02-4.1-1.83-6.07-.81-1.96-1.8-3.83-2.97-5.6-1.18-1.76-2.51-3.39-4-4.9-1.49-1.5-3.12-2.84-4.88-4.02-1.75-1.18-3.61-2.18-5.56-2.99-1.95-.81-3.96-1.43-6.03-1.84-2.07-.42-4.16-.62-6.27-.62s-4.2.2-6.27.62c-2.07.41-4.08,1.03-6.03,1.84-1.95.81-3.8,1.81-5.55,2.99-1.76,1.18-3.38,2.52-4.88,4.02-1.49,1.5-2.82,3.14-4,4.9-1.17,1.77-2.16,3.63-2.97,5.6-.81,1.96-1.42,3.98-1.83,6.07-.41,2.08-.62,4.18-.62,6.31s.21,4.23.62,6.31c.41,2.08,1.02,4.1,1.83,6.07.81,1.96,1.8,3.83,2.97,5.6,1.17,1.76,2.51,3.4,4,4.9,1.5,1.51,3.12,2.85,4.88,4.02,1.75,1.18,3.61,2.18,5.56,2.99,1.95.82,3.96,1.43,6.03,1.85,2.07.41,4.17.62,6.27.62s4.2-.21,6.27-.62c2.08-.42,4.08-1.03,6.04-1.85,1.95-.81,3.8-1.81,5.56-2.99,1.75-1.18,3.38-2.52,4.87-4.02"/>
    <path class="cls-1" d="M782.75,74.21c-1.5,1.51-2.83,3.14-4,4.9-1.18,1.77-2.17,3.63-2.98,5.59-.81,1.97-1.42,3.99-1.83,6.07-.41,2.09-.62,4.19-.62,6.31s.2,4.23.62,6.32c.41,2.08,1.02,4.11,1.83,6.07.81,1.96,1.8,3.83,2.97,5.6,1.17,1.77,2.51,3.41,4,4.9,1.49,1.51,3.12,2.85,4.88,4.03,1.75,1.18,3.61,2.18,5.56,2.99,1.95.82,3.96,1.43,6.04,1.85,2.08.41,4.17.62,6.28.62s4.21-.21,6.28-.62c2.07-.42,4.08-1.03,6.04-1.85,1.95-.81,3.81-1.81,5.56-2.99,1.76-1.18,3.39-2.53,4.88-4.03,1.5-1.5,2.83-3.14,4-4.9,1.18-1.77,2.16-3.63,2.98-5.6.81-1.96,1.42-3.99,1.83-6.07.41-2.09.62-4.19.62-6.32s-.21-4.22-.62-6.31c-.41-2.08-1.02-4.1-1.83-6.07-.81-1.96-1.8-3.83-2.98-5.59-1.18-1.77-2.51-3.4-4-4.9-1.49-1.5-3.12-2.84-4.88-4.02-1.75-1.18-3.61-2.18-5.56-2.99-1.95-.82-3.96-1.43-6.03-1.85-2.07-.41-4.16-.62-6.27-.62s-4.2.21-6.27.62c-2.08.42-4.08,1.03-6.04,1.85-1.95.81-3.8,1.81-5.55,2.99-1.76,1.18-3.39,2.52-4.88,4.02"/>
    <path class="cls-1" d="M910.44,202.52c-1.49,1.51-2.83,3.14-4,4.9-1.18,1.77-2.16,3.63-2.97,5.59-.81,1.96-1.42,3.98-1.83,6.07-.41,2.08-.62,4.18-.62,6.31s.21,4.23.62,6.31c.41,2.08,1.02,4.11,1.83,6.07.81,1.96,1.8,3.83,2.97,5.6,1.18,1.77,2.51,3.4,4,4.9,1.5,1.5,3.12,2.84,4.88,4.02,1.76,1.18,3.61,2.18,5.57,2.99,1.95.81,3.96,1.43,6.03,1.84,2.07.42,4.16.62,6.28.62s4.2-.21,6.28-.62c2.07-.41,4.08-1.03,6.03-1.84,1.95-.81,3.81-1.81,5.57-2.99,1.75-1.18,3.38-2.53,4.88-4.02,1.49-1.51,2.83-3.14,4-4.9,1.18-1.77,2.17-3.63,2.98-5.6.81-1.96,1.42-3.99,1.83-6.07.41-2.08.62-4.19.62-6.31s-.21-4.23-.62-6.31c-.42-2.09-1.02-4.11-1.83-6.07-.81-1.96-1.8-3.83-2.98-5.59-1.17-1.77-2.51-3.4-4-4.9-1.5-1.5-3.12-2.84-4.88-4.02-1.75-1.18-3.61-2.17-5.56-2.99-1.95-.81-3.96-1.42-6.04-1.83-2.07-.42-4.16-.62-6.27-.62s-4.21.21-6.28.62c-2.07.42-4.08,1.03-6.03,1.84-1.95.82-3.81,1.81-5.57,2.99-1.75,1.18-3.38,2.52-4.88,4.02"/>
    <path class="cls-1" d="M782.59,332.25c-1.49,1.51-2.82,3.14-4,4.9-1.18,1.77-2.16,3.63-2.97,5.59s-1.42,3.98-1.83,6.07c-.42,2.08-.62,4.18-.62,6.31s.21,4.23.62,6.31c.41,2.08,1.02,4.1,1.83,6.06.81,1.97,1.79,3.83,2.97,5.6,1.18,1.76,2.51,3.4,4,4.9,1.5,1.5,3.12,2.84,4.88,4.02,1.75,1.18,3.61,2.18,5.56,2.99,1.95.81,3.96,1.42,6.03,1.83,2.07.42,4.16.62,6.27.62s4.2-.21,6.27-.62c2.07-.41,4.08-1.02,6.03-1.83,1.95-.81,3.8-1.81,5.55-2.99,1.76-1.18,3.38-2.52,4.88-4.02,1.49-1.5,2.82-3.14,4-4.9,1.17-1.77,2.16-3.63,2.97-5.6.81-1.95,1.42-3.98,1.83-6.06.41-2.08.62-4.18.62-6.31s-.21-4.23-.62-6.31c-.41-2.08-1.02-4.11-1.83-6.07-.81-1.96-1.8-3.82-2.97-5.59-1.17-1.77-2.51-3.4-4-4.9-1.49-1.5-3.12-2.85-4.87-4.03-1.76-1.18-3.61-2.18-5.56-2.99-1.95-.81-3.96-1.43-6.04-1.85-2.07-.42-4.16-.62-6.27-.62s-4.2.2-6.27.62c-2.08.42-4.08,1.03-6.04,1.85-1.95.81-3.8,1.81-5.56,2.99-1.75,1.18-3.38,2.53-4.87,4.03"/>
    <path class="cls-2" d="M718.12,396.9c-1.49,1.5-2.82,3.14-4,4.9-1.18,1.77-2.16,3.63-2.97,5.6s-1.42,3.98-1.83,6.07c-.42,2.08-.62,4.18-.62,6.31s.21,4.23.62,6.31c.41,2.08,1.02,4.1,1.83,6.07.81,1.96,1.79,3.83,2.97,5.6,1.18,1.76,2.51,3.39,4,4.9,1.5,1.5,3.12,2.84,4.88,4.02,1.75,1.18,3.61,2.18,5.56,2.99,1.95.81,3.96,1.43,6.03,1.84,2.07.42,4.16.62,6.27.62s4.21-.2,6.27-.62c2.07-.41,4.08-1.03,6.03-1.84,1.95-.81,3.8-1.81,5.55-2.99,1.76-1.17,3.38-2.52,4.88-4.02,1.49-1.51,2.82-3.14,4-4.9,1.17-1.77,2.16-3.63,2.97-5.6.81-1.96,1.42-3.98,1.83-6.07.41-2.08.62-4.18.62-6.31s-.2-4.23-.62-6.31c-.41-2.08-1.02-4.11-1.83-6.07-.81-1.96-1.8-3.83-2.97-5.6-1.17-1.76-2.51-3.4-4-4.9-1.49-1.5-3.12-2.84-4.88-4.02-1.75-1.18-3.61-2.18-5.56-2.99-1.95-.82-3.96-1.43-6.04-1.85-2.07-.41-4.16-.62-6.27-.62s-4.2.21-6.27.62c-2.08.42-4.08,1.03-6.04,1.85-1.95.81-3.8,1.81-5.55,2.99-1.76,1.18-3.39,2.52-4.88,4.02"/>
    <path class="cls-1" d="M571.28,248.27c1.49-1.5,2.83-3.14,4-4.9,1.18-1.77,2.16-3.63,2.97-5.6.81-1.96,1.42-3.98,1.83-6.07.42-2.08.62-4.18.62-6.31s-.21-4.23-.62-6.31c-.41-2.08-1.02-4.1-1.83-6.07-.81-1.96-1.8-3.83-2.97-5.6-1.18-1.76-2.51-3.39-4-4.9-1.5-1.5-3.12-2.84-4.88-4.02-1.75-1.18-3.61-2.18-5.56-2.99-1.95-.81-3.96-1.42-6.03-1.84-2.07-.42-4.16-.62-6.27-.62s-4.2.2-6.27.62c-2.07.42-4.08,1.03-6.03,1.84-1.95.81-3.8,1.81-5.55,2.99-1.75,1.18-3.38,2.52-4.88,4.02-1.49,1.5-2.82,3.14-4,4.9-1.17,1.77-2.16,3.63-2.97,5.6-.81,1.96-1.42,3.98-1.83,6.07-.41,2.08-.62,4.18-.62,6.31s.21,4.23.62,6.31c.41,2.08,1.02,4.1,1.83,6.07.81,1.96,1.8,3.83,2.97,5.6,1.17,1.76,2.51,3.4,4,4.9,1.49,1.51,3.12,2.84,4.88,4.02,1.75,1.18,3.61,2.18,5.56,2.99,1.95.82,3.96,1.43,6.03,1.85,2.07.41,4.16.62,6.27.62s4.2-.21,6.27-.62c2.08-.42,4.08-1.03,6.04-1.85,1.95-.81,3.8-1.81,5.55-2.99,1.76-1.18,3.39-2.52,4.88-4.02"/>
    <path class="cls-1" d="M654.13,332.25c-1.49,1.51-2.82,3.14-4,4.9-1.18,1.77-2.16,3.63-2.97,5.59s-1.42,3.98-1.83,6.07c-.42,2.08-.62,4.18-.62,6.31s.21,4.23.62,6.31c.41,2.08,1.02,4.1,1.83,6.06.81,1.97,1.79,3.83,2.97,5.6,1.18,1.76,2.51,3.4,4,4.9,1.5,1.5,3.12,2.84,4.88,4.02,1.75,1.18,3.61,2.18,5.56,2.99,1.95.81,3.96,1.42,6.03,1.83,2.07.42,4.16.62,6.27.62s4.2-.21,6.27-.62c2.07-.41,4.08-1.02,6.03-1.83,1.95-.81,3.8-1.81,5.55-2.99,1.75-1.18,3.38-2.52,4.88-4.02,1.49-1.5,2.82-3.14,4-4.9,1.17-1.77,2.16-3.63,2.97-5.6.81-1.95,1.42-3.98,1.83-6.06.41-2.08.62-4.18.62-6.31s-.21-4.23-.62-6.31c-.41-2.08-1.02-4.11-1.83-6.07-.81-1.96-1.8-3.82-2.97-5.59-1.17-1.77-2.51-3.4-4-4.9-1.49-1.5-3.12-2.84-4.88-4.02-1.75-1.18-3.61-2.18-5.56-2.99-1.95-.81-3.96-1.43-6.03-1.84-2.07-.42-4.16-.62-6.27-.62s-4.2.21-6.27.62c-2.08.41-4.08,1.03-6.04,1.84-1.95.81-3.8,1.81-5.55,2.99-1.76,1.18-3.39,2.52-4.88,4.02"/>
  </g>
</svg>